<svg width="30" height="30" viewBox="0 0 30 30" fill="none" xmlns="http://www.w3.org/2000/svg">
<g clip-path="url(#clip0_29_332)">
<path d="M15 0C11.0231 0.00430135 7.21026 1.58604 4.39815 4.39815C1.58604 7.21026 0.00430135 11.0231 0 15C0.75 34.875 29.25 34.8662 30 15C29.9957 11.0231 28.414 7.21026 25.6019 4.39815C22.7897 1.58604 18.9769 0.00430135 15 0V0ZM15 3.75C17.2199 3.75213 19.3896 4.41009 21.2368 5.64125C23.084 6.87242 24.5263 8.62189 25.3825 10.67L17.53 12.2413C15.8012 12.5863 14.0213 12.5863 12.2925 12.2413L4.60375 10.7025C5.45602 8.64625 6.89828 6.88854 8.74854 5.65118C10.5988 4.41381 12.7741 3.75226 15 3.75ZM3.7575 15.3837L7.7 16.1725C8.41967 16.3165 9.09881 16.6171 9.68923 17.053C10.2796 17.489 10.7668 18.0496 11.1162 18.695L11.8975 20.1362C12.2919 20.8658 12.4989 21.6819 12.5 22.5113V25.965C10.0811 25.4098 7.91313 24.0718 6.33238 22.1586C4.75164 20.2454 3.84653 17.8639 3.7575 15.3837ZM17.5 25.97V22.5163C17.5011 21.6869 17.7081 20.8708 18.1025 20.1413L18.8838 18.7C19.2332 18.0546 19.7204 17.494 20.3108 17.058C20.9012 16.6221 21.5803 16.3215 22.3 16.1775L26.2425 15.3888C26.1535 17.8689 25.2484 20.2504 23.6676 22.1636C22.0869 24.0768 19.9189 25.4148 17.5 25.97Z" fill="url(#paint0_linear_29_332)"/>
</g>
<defs>
<linearGradient id="paint0_linear_29_332" x1="-5" y1="-3" x2="32" y2="36.5" gradientUnits="userSpaceOnUse">
<stop stop-color="#F83600"/>
<stop offset="1" stop-color="#F9D423"/>
</linearGradient>
<clipPath id="clip0_29_332">
<rect width="30" height="30" fill="white"/>
</clipPath>
</defs>
</svg>
