<svg width="60" height="60" viewBox="0 0 60 60" fill="none" xmlns="http://www.w3.org/2000/svg">
<g clip-path="url(#clip0_1207_8132)">
<path d="M44.3023 7.5L40.7698 2.92C40.0661 2.01452 39.1656 1.28104 38.1364 0.775135C37.1073 0.269229 35.9765 0.00415761 34.8298 0L25.1698 0C24.023 0.00415761 22.8922 0.269229 21.8631 0.775135C20.834 1.28104 19.9334 2.01452 19.2298 2.92L15.6973 7.5H44.3023Z" fill="#BDBDBD"/>
<path d="M30 45C35.5228 45 40 40.5228 40 35C40 29.4772 35.5228 25 30 25C24.4772 25 20 29.4772 20 35C20 40.5228 24.4772 45 30 45Z" fill="#BDBDBD"/>
<path d="M47.5 12.5H12.5C9.18601 12.504 6.00889 13.8222 3.66555 16.1656C1.3222 18.5089 0.00396964 21.686 0 25L0 47.5C0.00396964 50.814 1.3222 53.9911 3.66555 56.3345C6.00889 58.6778 9.18601 59.996 12.5 60H47.5C50.814 59.996 53.9911 58.6778 56.3345 56.3345C58.6778 53.9911 59.996 50.814 60 47.5V25C59.996 21.686 58.6778 18.5089 56.3345 16.1656C53.9911 13.8222 50.814 12.504 47.5 12.5V12.5ZM30 50C27.0333 50 24.1332 49.1203 21.6664 47.472C19.1997 45.8238 17.2771 43.4811 16.1418 40.7403C15.0065 37.9994 14.7094 34.9834 15.2882 32.0736C15.867 29.1639 17.2956 26.4912 19.3934 24.3934C21.4912 22.2956 24.1639 20.867 27.0736 20.2882C29.9834 19.7094 32.9994 20.0065 35.7403 21.1418C38.4811 22.2771 40.8238 24.1997 42.472 26.6664C44.1203 29.1332 45 32.0333 45 35C44.996 38.977 43.4144 42.79 40.6022 45.6022C37.79 48.4144 33.977 49.996 30 50V50Z" fill="#BDBDBD"/>
</g>
<defs>
<clipPath id="clip0_1207_8132">
<rect width="60" height="60" fill="white"/>
</clipPath>
</defs>
</svg>
