<svg width="137" height="137" viewBox="0 0 137 137" fill="none" xmlns="http://www.w3.org/2000/svg">
<path d="M102.619 55.0932C103.153 47.739 102.097 40.3561 99.5239 33.4461C96.9507 26.5361 92.9202 20.2609 87.7061 15.047C82.4921 9.83312 76.2168 5.80268 69.3066 3.22957C62.3964 0.656458 55.0133 -0.399027 47.6589 0.134835C34.6263 1.62314 22.5875 7.82477 13.8095 17.5719C5.03148 27.319 0.12003 39.939 0 53.0554L0 81.8247C0 96.2778 8.60246 102.751 17.125 102.751H49.6625C62.7848 102.638 75.4128 97.7299 85.1671 88.9516C94.9214 80.1733 101.128 68.1308 102.619 55.0932ZM79.6312 23.1274C83.6838 27.1888 86.8166 32.0733 88.8178 37.4503C90.819 42.8274 91.6418 48.5715 91.2306 54.2941C90.0122 64.4757 85.1141 73.8607 77.4583 80.6827C69.8024 87.5047 59.9169 91.293 49.6625 91.3345H17.125C11.8277 91.3345 11.4167 84.0566 11.4167 81.8247V53.0554C11.4643 42.8057 15.2564 32.9267 22.0794 25.2776C28.9023 17.6284 38.2858 12.7366 48.4637 11.5227C49.4113 11.4542 50.3589 11.4199 51.3065 11.4199C56.5654 11.415 61.7738 12.4465 66.6339 14.4553C71.494 16.4641 75.9106 19.411 79.6312 23.1274Z" fill="#7AB1FF" fill-opacity="0.4"/>
<path d="M137 91.3346V119.876C137 124.417 135.196 128.773 131.984 131.984C128.773 135.196 124.417 137 119.875 137H91.3333C83.3251 136.992 75.4598 134.878 68.5265 130.87C61.5933 126.863 55.8358 121.103 51.8317 114.167C56.135 114.137 60.4237 113.662 64.6297 112.752C67.833 116.757 71.8964 119.99 76.519 122.211C81.1416 124.432 86.2047 125.585 91.3333 125.584H119.875C121.389 125.584 122.841 124.982 123.911 123.912C124.982 122.841 125.583 121.389 125.583 119.876V91.3346C125.582 86.2043 124.426 81.1401 122.2 76.5175C119.975 71.895 116.738 67.8326 112.728 64.6317C113.646 60.4266 114.128 56.138 114.167 51.834C121.102 55.838 126.862 61.5953 130.87 68.5284C134.878 75.4615 136.992 83.3266 137 91.3346Z" fill="#FFC11E" fill-opacity="0.4"/>
</svg>
