<svg width="29" height="30" viewBox="0 0 29 30" fill="none" xmlns="http://www.w3.org/2000/svg">
<path d="M28.5529 11.9477C28.3185 11.7134 28.0007 11.5818 27.6692 11.5818C27.3377 11.5818 27.0199 11.7134 26.7854 11.9477L13.1704 25.6215C12.5901 26.2019 11.9011 26.6624 11.1428 26.9765C10.3845 27.2907 9.5717 27.4524 8.75089 27.4525C7.09318 27.4526 5.50333 26.7942 4.33107 25.6221C3.15881 24.45 2.50018 22.8603 2.50006 21.2026C2.49995 19.5449 3.15836 17.955 4.33045 16.7827L17.5167 3.54274C18.2218 2.84886 19.1725 2.4617 20.1618 2.46562C21.1511 2.46953 22.0987 2.86418 22.7983 3.56362C23.4979 4.26306 23.8928 5.21061 23.8969 6.19988C23.9011 7.18914 23.5142 8.13997 22.8204 8.84524L9.6342 22.0852C9.39638 22.3131 9.07978 22.4402 8.75045 22.4402C8.42112 22.4402 8.10451 22.3131 7.8667 22.0852C7.63236 21.8508 7.50071 21.5329 7.50071 21.2015C7.50071 20.87 7.63236 20.5522 7.8667 20.3177L19.6067 8.52399C19.8344 8.28824 19.9604 7.97249 19.9575 7.64474C19.9547 7.31699 19.8232 7.00348 19.5915 6.77172C19.3597 6.53996 19.0462 6.4085 18.7184 6.40565C18.3907 6.4028 18.0749 6.52879 17.8392 6.75649L6.0992 18.5502C5.75091 18.8985 5.47463 19.3119 5.28613 19.7669C5.09764 20.2219 5.00062 20.7096 5.00062 21.2021C5.00062 21.6946 5.09764 22.1823 5.28613 22.6373C5.47463 23.0923 5.75091 23.5058 6.0992 23.854C6.81372 24.5358 7.76342 24.9163 8.75107 24.9163C9.73872 24.9163 10.6884 24.5358 11.4029 23.854L24.5879 10.6127C25.7354 9.43562 26.373 7.85381 26.3624 6.20996C26.3519 4.56611 25.6942 2.99259 24.5317 1.83027C23.3692 0.667951 21.7956 0.0104228 20.1517 0.000122847C18.5079 -0.0101771 16.9262 0.62758 15.7492 1.77524L2.56295 15.0152C0.921919 16.6563 -2.44532e-08 18.882 0 21.2027C2.44532e-08 23.5235 0.921919 25.7492 2.56295 27.3902C4.20397 29.0313 6.42968 29.9532 8.75045 29.9532C11.0712 29.9532 13.2969 29.0313 14.9379 27.3902L28.5529 13.7202C28.6697 13.6041 28.7624 13.466 28.8256 13.3139C28.8889 13.1618 28.9214 12.9987 28.9214 12.834C28.9214 12.6693 28.8889 12.5062 28.8256 12.3541C28.7624 12.202 28.6697 12.0639 28.5529 11.9477Z" fill="#BDBDBD"/>
</svg>
