<svg width="30" height="30" viewBox="0 0 30 30" fill="none" xmlns="http://www.w3.org/2000/svg">
<g clip-path="url(#clip0_162_4123)">
<path d="M18.75 0H11.25C9.59301 0.00198482 8.00445 0.661102 6.83277 1.83277C5.6611 3.00445 5.00198 4.59301 5 6.25V20H25V6.25C24.998 4.59301 24.3389 3.00445 23.1672 1.83277C21.9956 0.661102 20.407 0.00198482 18.75 0V0Z" fill="url(#paint0_linear_162_4123)"/>
<path d="M5 23.75C5.00198 25.407 5.6611 26.9956 6.83277 28.1672C8.00445 29.3389 9.59301 29.998 11.25 30H18.75C20.407 29.998 21.9956 29.3389 23.1672 28.1672C24.3389 26.9956 24.998 25.407 25 23.75V22.5H5V23.75ZM15 25C15.2472 25 15.4889 25.0733 15.6945 25.2107C15.9 25.348 16.0602 25.5432 16.1549 25.7716C16.2495 26.0001 16.2742 26.2514 16.226 26.4939C16.1778 26.7363 16.0587 26.9591 15.8839 27.1339C15.7091 27.3087 15.4863 27.4278 15.2439 27.476C15.0014 27.5242 14.7501 27.4995 14.5216 27.4048C14.2932 27.3102 14.098 27.15 13.9607 26.9445C13.8233 26.7389 13.75 26.4972 13.75 26.25C13.75 25.9185 13.8817 25.6005 14.1161 25.3661C14.3505 25.1317 14.6685 25 15 25Z" fill="url(#paint1_linear_162_4123)"/>
</g>
<defs>
<linearGradient id="paint0_linear_162_4123" x1="12" y1="10" x2="30.5" y2="28.5" gradientUnits="userSpaceOnUse">
<stop stop-color="#09203F"/>
<stop offset="1" stop-color="#537895"/>
</linearGradient>
<linearGradient id="paint1_linear_162_4123" x1="6" y1="19.5" x2="15" y2="30" gradientUnits="userSpaceOnUse">
<stop stop-color="#09203F"/>
<stop offset="1" stop-color="#537895"/>
</linearGradient>
<clipPath id="clip0_162_4123">
<rect width="30" height="30" fill="white"/>
</clipPath>
</defs>
</svg>
