<svg width="20" height="20" viewBox="0 0 20 20" fill="none" xmlns="http://www.w3.org/2000/svg">
<g clip-path="url(#clip0_1110_7398)">
<path d="M19.9617 4.61835L12.9467 11.6333C12.1645 12.4136 11.1048 12.8517 10 12.8517C8.89521 12.8517 7.83552 12.4136 7.05333 11.6333L0.0383333 4.61835C0.0266667 4.75001 0 4.86918 0 5.00001V15C0.00132321 16.1047 0.440735 17.1637 1.22185 17.9448C2.00296 18.7259 3.062 19.1654 4.16667 19.1667H15.8333C16.938 19.1654 17.997 18.7259 18.7782 17.9448C19.5593 17.1637 19.9987 16.1047 20 15V5.00001C20 4.86918 19.9733 4.75001 19.9617 4.61835Z" fill="#BDBDBD"/>
<path d="M11.7685 10.455L19.3801 2.84248C19.0114 2.23108 18.4913 1.72501 17.8701 1.37309C17.2489 1.02117 16.5474 0.835264 15.8335 0.833313H4.16678C3.4528 0.835264 2.75137 1.02117 2.13014 1.37309C1.50891 1.72501 0.988849 2.23108 0.620117 2.84248L8.23178 10.455C8.70143 10.9227 9.33727 11.1854 10.0001 11.1854C10.663 11.1854 11.2988 10.9227 11.7685 10.455V10.455Z" fill="#BDBDBD"/>
</g>
<defs>
<clipPath id="clip0_1110_7398">
<rect width="20" height="20" fill="white"/>
</clipPath>
</defs>
</svg>
