<svg width="20" height="20" viewBox="0 0 20 20" fill="none" xmlns="http://www.w3.org/2000/svg">
<g clip-path="url(#clip0_420_4629)">
<path d="M19.3923 7.84919C18.0998 5.74419 15.1598 2.21252 9.9998 2.21252C4.8398 2.21252 1.8998 5.74419 0.607299 7.84919C0.207739 8.49545 -0.00390625 9.24023 -0.00390625 10C-0.00390625 10.7598 0.207739 11.5046 0.607299 12.1509C1.8998 14.2559 4.8398 17.7875 9.9998 17.7875C15.1598 17.7875 18.0998 14.2559 19.3923 12.1509C19.7919 11.5046 20.0035 10.7598 20.0035 10C20.0035 9.24023 19.7919 8.49545 19.3923 7.84919ZM17.9715 11.2784C16.8615 13.0834 14.349 16.1209 9.9998 16.1209C5.65063 16.1209 3.13813 13.0834 2.02813 11.2784C1.79074 10.8942 1.66501 10.4516 1.66501 10C1.66501 9.54846 1.79074 9.10582 2.02813 8.72169C3.13813 6.91669 5.65063 3.87919 9.9998 3.87919C14.349 3.87919 16.8615 6.91336 17.9715 8.72169C18.2089 9.10582 18.3346 9.54846 18.3346 10C18.3346 10.4516 18.2089 10.8942 17.9715 11.2784Z" fill="#BDBDBD"/>
<path d="M9.99968 5.83331C9.17559 5.83331 8.37001 6.07768 7.6848 6.53552C6.9996 6.99336 6.46554 7.64411 6.15018 8.40547C5.83481 9.16682 5.7523 10.0046 5.91307 10.8129C6.07384 11.6211 6.47068 12.3635 7.0534 12.9463C7.63612 13.529 8.37855 13.9258 9.1868 14.0866C9.99505 14.2474 10.8328 14.1648 11.5942 13.8495C12.3555 13.5341 13.0063 13.0001 13.4641 12.3149C13.922 11.6297 14.1663 10.8241 14.1663 9.99998C14.165 8.89532 13.7256 7.83628 12.9445 7.05516C12.1634 6.27405 11.1043 5.83464 9.99968 5.83331ZM9.99968 12.5C9.50522 12.5 9.02187 12.3534 8.61075 12.0787C8.19963 11.804 7.8792 11.4135 7.68998 10.9567C7.50076 10.4999 7.45125 9.99721 7.54771 9.51225C7.64418 9.0273 7.88228 8.58184 8.23191 8.23221C8.58154 7.88258 9.027 7.64448 9.51195 7.54802C9.9969 7.45155 10.4996 7.50106 10.9564 7.69028C11.4132 7.8795 11.8036 8.19993 12.0784 8.61105C12.3531 9.02218 12.4997 9.50553 12.4997 9.99998C12.4997 10.663 12.2363 11.2989 11.7674 11.7677C11.2986 12.2366 10.6627 12.5 9.99968 12.5Z" fill="#BDBDBD"/>
</g>
<defs>
<clipPath id="clip0_420_4629">
<rect width="20" height="20" fill="white"/>
</clipPath>
</defs>
</svg>
