<svg width="30" height="30" viewBox="0 0 30 30" fill="none" xmlns="http://www.w3.org/2000/svg">
<g clip-path="url(#clip0_1120_7392)">
<path fill-rule="evenodd" clip-rule="evenodd" d="M29.4 15.3409C29.4 14.2773 29.3045 13.2546 29.1273 12.2728H15V18.075H23.0727C22.725 19.95 21.6682 21.5387 20.0795 22.6023V26.3659H24.9273C27.7636 23.7546 29.4 19.9091 29.4 15.3409Z" fill="#4285F4"/>
<path fill-rule="evenodd" clip-rule="evenodd" d="M15.0002 30C19.0502 30 22.4457 28.6568 24.9275 26.3659L20.0798 22.6022C18.7366 23.5022 17.0184 24.0341 15.0002 24.0341C11.0934 24.0341 7.78661 21.3954 6.60707 17.85H1.5957V21.7363C4.06388 26.6386 9.13661 30 15.0002 30Z" fill="#34A853"/>
<path fill-rule="evenodd" clip-rule="evenodd" d="M6.60682 17.85C6.30682 16.95 6.13636 15.9887 6.13636 15C6.13636 14.0114 6.30682 13.05 6.60682 12.15V8.26367H1.59545C0.579545 10.2887 0 12.5796 0 15C0 17.4205 0.579545 19.7114 1.59545 21.7364L6.60682 17.85Z" fill="#FBBC05"/>
<path fill-rule="evenodd" clip-rule="evenodd" d="M15.0002 5.96591C17.2025 5.96591 19.1798 6.72273 20.7343 8.20909L25.0366 3.90682C22.4389 1.48636 19.0434 0 15.0002 0C9.13661 0 4.06389 3.36136 1.5957 8.26364L6.60707 12.15C7.78661 8.60455 11.0934 5.96591 15.0002 5.96591Z" fill="#EA4335"/>
</g>
<defs>
<clipPath id="clip0_1120_7392">
<rect width="30" height="30" rx="6" fill="white"/>
</clipPath>
</defs>
</svg>
