<svg width="30" height="30" viewBox="0 0 30 30" fill="none" xmlns="http://www.w3.org/2000/svg">
<g clip-path="url(#clip0_1086_7985)">
<path d="M15.07 14.0139L25.1188 22.4114L18.0013 27.7502C16.2238 29.0839 13.7788 29.0839 12.0013 27.7502L4.335 22.0002C3.68625 21.5139 2.89625 21.2502 2.085 21.2502H1.25125C0.56 21.2502 0 20.6902 0 20.0002V6.17143C0 5.53643 0.47375 5.00768 1.105 4.93643C2.80125 4.74768 4.32875 4.06643 5.89125 3.15643C8.13875 2.00018 11.0875 2.41268 12.9113 4.12143L13.6825 4.86268L8.67375 9.75143C7.3325 11.0914 7.11875 13.2102 8.17625 14.6739C8.82625 15.5777 10.0025 16.2477 11.2313 16.2477C12.2225 16.2477 13.1738 15.8577 13.8613 15.1689L15.07 14.0127V14.0139ZM24.9425 3.15643C22.83 2.10018 20.195 2.37518 18.3075 3.84143L10.4288 11.5314C9.965 11.9964 9.86 12.7402 10.2025 13.2152C10.4275 13.5277 10.7538 13.7152 11.1263 13.7464C11.495 13.7777 11.8525 13.6439 12.1113 13.3839L16.6338 9.09768C17.82 7.97143 19.5388 9.76893 18.3625 10.9039L16.8863 12.2752L27.6275 21.2514H28.7488C29.4388 21.2514 29.9988 20.6914 29.9988 20.0014V6.12893C29.9988 5.51643 29.5513 5.01018 28.9475 4.90143C26.83 4.51893 24.9413 3.15768 24.9413 3.15768L24.9425 3.15643Z" fill="#7AB1FF"/>
</g>
<defs>
<clipPath id="clip0_1086_7985">
<rect width="30" height="30" fill="white"/>
</clipPath>
</defs>
</svg>
