<svg width="30" height="30" viewBox="0 0 30 30" fill="none" xmlns="http://www.w3.org/2000/svg">
<g clip-path="url(#clip0_152_2363)">
<path d="M1.1 12.3875L5.9375 7.5C6.0537 7.38284 6.19195 7.28984 6.34428 7.22638C6.4966 7.16292 6.65998 7.13025 6.825 7.13025C6.99001 7.13025 7.15339 7.16292 7.30572 7.22638C7.45804 7.28984 7.59629 7.38284 7.7125 7.5C7.94531 7.7342 8.07599 8.05101 8.07599 8.38125C8.07599 8.71148 7.94531 9.02829 7.7125 9.2625L3.2625 13.75H28.75C29.0815 13.75 29.3995 13.8817 29.6339 14.1161C29.8683 14.3505 30 14.6685 30 15V15C30 15.3315 29.8683 15.6495 29.6339 15.8839C29.3995 16.1183 29.0815 16.25 28.75 16.25H3.1875L7.7125 20.7625C7.82966 20.8787 7.92265 21.017 7.98611 21.1693C8.04957 21.3216 8.08224 21.485 8.08224 21.65C8.08224 21.815 8.04957 21.9784 7.98611 22.1307C7.92265 22.283 7.82966 22.4213 7.7125 22.5375C7.59629 22.6547 7.45804 22.7477 7.30572 22.8111C7.15339 22.8746 6.99001 22.9072 6.825 22.9072C6.65998 22.9072 6.4966 22.8746 6.34428 22.8111C6.19195 22.7477 6.0537 22.6547 5.9375 22.5375L1.1 17.6875C0.397743 16.9844 0.00329781 16.0313 0.00329781 15.0375C0.00329781 14.0437 0.397743 13.0906 1.1 12.3875Z" fill="#414042"/>
</g>
<defs>
<clipPath id="clip0_152_2363">
<rect width="30" height="30" fill="white" transform="matrix(-1 0 0 1 30 0)"/>
</clipPath>
</defs>
</svg>
