<svg width="20" height="20" viewBox="0 0 20 20" fill="none" xmlns="http://www.w3.org/2000/svg">
<path d="M19.6345 17.871L15.7635 13.9984C18.66 10.1278 17.8702 4.64195 13.9996 1.74551C10.1289 -1.15092 4.64308 -0.361157 1.74664 3.50949C-1.14979 7.38013 -0.360027 12.866 3.51062 15.7624C6.61984 18.0891 10.8903 18.0891 13.9996 15.7624L17.8721 19.635C18.3588 20.1216 19.1478 20.1216 19.6344 19.635C20.1211 19.1483 20.1211 18.3593 19.6344 17.8727L19.6345 17.871ZM8.78736 15.015C5.34731 15.015 2.55864 12.2263 2.55864 8.78623C2.55864 5.34618 5.34731 2.55751 8.78736 2.55751C12.2274 2.55751 15.0161 5.34618 15.0161 8.78623C15.0124 12.2247 12.2259 15.0113 8.78736 15.015Z" fill="#BDBDBD"/>
</svg>
