<svg width="30" height="30" viewBox="0 0 30 30" fill="none" xmlns="http://www.w3.org/2000/svg">
<g clip-path="url(#clip0_162_4126)">
<path d="M29.4188 18.4063C29.1599 18.0919 28.8278 17.8458 28.4516 17.6898C28.0754 17.5337 27.6667 17.4724 27.2613 17.5113C24.9284 17.6479 22.6753 18.4095 20.738 19.7163C18.8007 21.0231 17.2505 22.8269 16.25 24.9388V17.395C17.9967 17.0975 19.5819 16.1921 20.7256 14.8389C21.8693 13.4857 22.4978 11.7718 22.5 10C22.5 6.50876 20.0713 3.56001 17.695 1.13626C17.5576 0.995506 17.4087 0.866319 17.25 0.750011C15.8145 3.60996 15.0453 6.75784 15 9.95751C15.0056 10.1217 14.9788 10.2853 14.9211 10.4391C14.8635 10.5929 14.7761 10.7338 14.664 10.8538C14.5518 10.9739 14.4172 11.0706 14.2676 11.1386C14.1181 11.2066 13.9567 11.2444 13.7925 11.25C13.6284 11.2556 13.4647 11.2288 13.3109 11.1711C13.1571 11.1135 13.0162 11.0261 12.8962 10.9139C12.7762 10.8018 12.6794 10.6672 12.6114 10.5176C12.5435 10.3681 12.5056 10.2067 12.5 10.0425C12.5133 6.57875 13.3017 3.16188 14.8075 0.042511C13.8666 0.0798644 12.9741 0.469866 12.3075 1.13501C9.92878 3.56001 7.50003 6.50876 7.50003 10C7.50229 11.7718 8.13081 13.4857 9.27449 14.8389C10.4182 16.1921 12.0034 17.0975 13.75 17.395V24.94C12.7498 22.8279 11.1998 21.0237 9.26242 19.7167C7.32508 18.4097 5.07179 17.6479 2.73878 17.5113C2.33339 17.4726 1.92472 17.534 1.54857 17.6901C1.17243 17.8461 0.840295 18.092 0.581278 18.4063C0.323919 18.7118 0.144727 19.0754 0.0591464 19.4656C-0.0264341 19.8559 -0.0158359 20.261 0.0900276 20.6463C2.63878 29.8188 14.4888 30 14.9925 30H15.0075C15.5075 30 27.3625 29.8188 29.9113 20.6463C30.0165 20.2609 30.0267 19.8558 29.9409 19.4656C29.8552 19.0754 29.676 18.7119 29.4188 18.4063Z" fill="url(#paint0_linear_162_4126)"/>
</g>
<defs>
<linearGradient id="paint0_linear_162_4126" x1="-1.76374e-07" y1="3.06841e-05" x2="37" y2="39" gradientUnits="userSpaceOnUse">
<stop stop-color="#0FD850"/>
<stop offset="0.916667" stop-color="#F9F047"/>
</linearGradient>
<clipPath id="clip0_162_4126">
<rect width="30" height="30" fill="white"/>
</clipPath>
</defs>
</svg>
