<svg width="30" height="30" viewBox="0 0 30 30" fill="none" xmlns="http://www.w3.org/2000/svg">
<g clip-path="url(#clip0_29_318)">
<path d="M23.75 5H22.375C22.0849 3.58927 21.3173 2.32168 20.2016 1.4109C19.0859 0.500113 17.6903 0.00181816 16.25 0L13.75 0C12.3097 0.00181816 10.9141 0.500113 9.79844 1.4109C8.68272 2.32168 7.91512 3.58927 7.625 5H6.25C4.59301 5.00198 3.00445 5.6611 1.83277 6.83278C0.661102 8.00445 0.00198482 9.59301 0 11.25L0 15H30V11.25C29.998 9.59301 29.3389 8.00445 28.1672 6.83278C26.9956 5.6611 25.407 5.00198 23.75 5ZM10.23 5C10.4876 4.27136 10.964 3.64011 11.5941 3.19261C12.2242 2.7451 12.9772 2.5032 13.75 2.5H16.25C17.0228 2.5032 17.7758 2.7451 18.4059 3.19261C19.036 3.64011 19.5124 4.27136 19.77 5H10.23Z" fill="url(#paint0_linear_29_318)"/>
<path d="M16.25 18.75C16.25 19.0815 16.1183 19.3995 15.8839 19.6339C15.6495 19.8683 15.3315 20 15 20C14.6685 20 14.3505 19.8683 14.1161 19.6339C13.8817 19.3995 13.75 19.0815 13.75 18.75V17.5H0V23.75C0.00198482 25.407 0.661102 26.9956 1.83277 28.1672C3.00445 29.3389 4.59301 29.998 6.25 30H23.75C25.407 29.998 26.9956 29.3389 28.1672 28.1672C29.3389 26.9956 29.998 25.407 30 23.75V17.5H16.25V18.75Z" fill="url(#paint1_linear_29_318)"/>
</g>
<defs>
<linearGradient id="paint0_linear_29_318" x1="15" y1="0" x2="15" y2="15" gradientUnits="userSpaceOnUse">
<stop stop-color="#C95C46"/>
<stop offset="1" stop-color="#511414"/>
</linearGradient>
<linearGradient id="paint1_linear_29_318" x1="15" y1="17.5" x2="15" y2="30" gradientUnits="userSpaceOnUse">
<stop stop-color="#C95C46"/>
<stop offset="1" stop-color="#511414"/>
</linearGradient>
<clipPath id="clip0_29_318">
<rect width="30" height="30" fill="white"/>
</clipPath>
</defs>
</svg>
