<svg width="113" height="47" viewBox="0 0 113 47" fill="none" xmlns="http://www.w3.org/2000/svg">
<path d="M6.05176 0.0507812V16.9414C6.05176 17.7051 6.02181 18.5436 5.96191 19.457C5.90202 20.3555 5.84212 21.2015 5.78223 21.9951H5.89453C6.28385 21.471 6.74805 20.8571 7.28711 20.1533C7.84115 19.4495 8.36523 18.8356 8.85938 18.3115L16.4512 10.1357H22.5156L12.5654 20.8271L23.167 35H16.9678L9.0166 24.084L6.05176 26.6221V35H0.773438V0.0507812H6.05176ZM27.4209 10.1357V35H22.1426V10.1357H27.4209ZM24.8154 0.612305C25.624 0.612305 26.3203 0.829427 26.9043 1.26367C27.5033 1.69792 27.8027 2.44661 27.8027 3.50977C27.8027 4.55794 27.5033 5.30664 26.9043 5.75586C26.3203 6.1901 25.624 6.40723 24.8154 6.40723C23.9769 6.40723 23.2656 6.1901 22.6816 5.75586C22.1126 5.30664 21.8281 4.55794 21.8281 3.50977C21.8281 2.44661 22.1126 1.69792 22.6816 1.26367C23.2656 0.829427 23.9769 0.612305 24.8154 0.612305ZM35.2686 0.0507812V8.47363C35.2686 9.44694 35.2386 10.4053 35.1787 11.3486C35.1338 12.277 35.0889 13.0033 35.0439 13.5273H35.2686C35.9424 12.4492 36.8783 11.5433 38.0762 10.8096C39.2891 10.0609 40.8389 9.68652 42.7256 9.68652C45.6755 9.68652 48.0488 10.7721 49.8457 12.9434C51.6426 15.0996 52.541 18.2965 52.541 22.5342C52.541 25.3493 52.1292 27.7152 51.3057 29.6318C50.4821 31.5485 49.3216 33.001 47.8242 33.9893C46.3418 34.9626 44.5973 35.4492 42.5908 35.4492C40.7041 35.4492 39.1768 35.1048 38.0088 34.416C36.8558 33.7122 35.9499 32.8962 35.291 31.9678H34.9092L33.9434 35H29.9902V0.0507812H35.2686ZM41.333 13.9766C39.8356 13.9766 38.6452 14.276 37.7617 14.875C36.8932 15.474 36.2643 16.3724 35.875 17.5703C35.4857 18.7533 35.2835 20.2581 35.2686 22.085V22.5566C35.2686 25.3268 35.7028 27.4456 36.5713 28.9131C37.4548 30.3805 39.057 31.1143 41.3779 31.1143C43.2197 31.1143 44.6348 30.373 45.623 28.8906C46.6113 27.3932 47.1055 25.252 47.1055 22.4668C47.1055 19.6517 46.6113 17.5329 45.623 16.1104C44.6497 14.6878 43.2197 13.9766 41.333 13.9766Z" fill="#414042"/>
<path d="M62.9043 31.1816C63.5931 31.1816 64.2744 31.1217 64.9482 31.002C65.6221 30.8672 66.236 30.71 66.79 30.5303V34.5283C66.2061 34.7829 65.4499 35 64.5215 35.1797C63.5931 35.3594 62.6273 35.4492 61.624 35.4492C60.2165 35.4492 58.9512 35.2171 57.8281 34.7529C56.7051 34.2738 55.8141 33.4577 55.1553 32.3047C54.4964 31.1517 54.167 29.557 54.167 27.5205V14.1562H50.7754V11.7979L54.4141 9.93359L56.1436 4.61035H59.4678V10.1357H66.5879V14.1562H59.4678V27.4531C59.4678 28.7109 59.7822 29.6468 60.4111 30.2607C61.04 30.8747 61.8711 31.1816 62.9043 31.1816Z" fill="#35D073"/>
<path d="M88.8555 22.5117C88.8555 24.5781 88.5859 26.4124 88.0469 28.0146C87.5078 29.6169 86.7217 30.972 85.6885 32.0801C84.6553 33.1732 83.4124 34.0117 81.96 34.5957C80.5075 35.1647 78.8678 35.4492 77.041 35.4492C75.334 35.4492 73.7692 35.1647 72.3467 34.5957C70.9242 34.0117 69.6888 33.1732 68.6406 32.0801C67.6074 30.972 66.8063 29.6169 66.2373 28.0146C65.6683 26.4124 65.3838 24.5781 65.3838 22.5117C65.3838 19.7715 65.8555 17.4505 66.7988 15.5488C67.7572 13.6322 69.1198 12.1722 70.8867 11.1689C72.6536 10.1657 74.7575 9.66406 77.1982 9.66406C79.4893 9.66406 81.5107 10.1657 83.2627 11.1689C85.0146 12.1722 86.3848 13.6322 87.373 15.5488C88.3613 17.4655 88.8555 19.7865 88.8555 22.5117ZM70.8193 22.5117C70.8193 24.3236 71.0365 25.8734 71.4707 27.1611C71.9199 28.4489 72.6087 29.4372 73.5371 30.126C74.4655 30.7998 75.6634 31.1367 77.1309 31.1367C78.5983 31.1367 79.7962 30.7998 80.7246 30.126C81.653 29.4372 82.3343 28.4489 82.7686 27.1611C83.2028 25.8734 83.4199 24.3236 83.4199 22.5117C83.4199 20.6999 83.2028 19.165 82.7686 17.9072C82.3343 16.6344 81.653 15.6686 80.7246 15.0098C79.7962 14.3359 78.5908 13.999 77.1084 13.999C74.9222 13.999 73.3275 14.7327 72.3242 16.2002C71.321 17.6676 70.8193 19.7715 70.8193 22.5117Z" fill="#FFC11E"/>
<path d="M102.678 9.66406C105.628 9.66406 107.993 10.7422 109.775 12.8984C111.572 15.0547 112.471 18.2591 112.471 22.5117C112.471 25.3268 112.051 27.7002 111.213 29.6318C110.389 31.5485 109.229 33.001 107.731 33.9893C106.249 34.9626 104.52 35.4492 102.543 35.4492C101.285 35.4492 100.192 35.2845 99.2637 34.9551C98.3353 34.6257 97.5417 34.1989 96.8828 33.6748C96.224 33.1357 95.6699 32.5518 95.2207 31.9229H94.9062C94.9811 32.5218 95.0485 33.1882 95.1084 33.9219C95.1833 34.6406 95.2207 35.2995 95.2207 35.8984V46.0283H89.9199V10.1357H94.2324L94.9736 13.5723H95.2207C95.6849 12.8685 96.2464 12.2171 96.9053 11.6182C97.5791 11.0192 98.3877 10.5475 99.3311 10.2031C100.289 9.84375 101.405 9.66406 102.678 9.66406ZM101.263 13.9766C99.8102 13.9766 98.6423 14.2686 97.7588 14.8525C96.8903 15.4215 96.2539 16.2826 95.8496 17.4355C95.4603 18.5885 95.2507 20.0335 95.2207 21.7705V22.5117C95.2207 24.3535 95.4079 25.9183 95.7822 27.2061C96.1715 28.4788 96.8079 29.4521 97.6914 30.126C98.5898 30.7848 99.8027 31.1143 101.33 31.1143C102.618 31.1143 103.681 30.7624 104.52 30.0586C105.373 29.3548 106.009 28.3516 106.429 27.0488C106.848 25.7461 107.058 24.2113 107.058 22.4443C107.058 19.764 106.578 17.6826 105.62 16.2002C104.677 14.7178 103.224 13.9766 101.263 13.9766Z" fill="#7AB1FF"/>
</svg>
