<svg width="30" height="30" viewBox="0 0 30 30" fill="none" xmlns="http://www.w3.org/2000/svg">
<g clip-path="url(#clip0_162_4120)">
<path d="M29.8263 9.99988H16.25V2.49988C16.243 2.16966 16.3029 1.84144 16.4261 1.53496C16.5492 1.22849 16.7331 0.950104 16.9667 0.716551C17.2002 0.482998 17.4786 0.299107 17.7851 0.175944C18.0916 0.0527801 18.4198 -0.00711009 18.75 -0.00012345C18.8538 -0.00012345 28.4325 0.124877 29.8263 9.99988ZM8.13125 12.4999L5.305 9.32113C4.3275 8.06113 0.355 6.18238 0 8.74988C0 9.0814 0.131696 9.39934 0.366117 9.63376C0.600537 9.86818 0.918479 9.99988 1.25 9.99988C1.66313 9.99996 2.07156 10.0876 2.44838 10.2569C2.82521 10.4263 3.16189 10.6735 3.43625 10.9824L5 12.7411V13.7499C5.00198 15.4069 5.6611 16.9954 6.83278 18.1671C8.00445 19.3388 9.59301 19.9979 11.25 19.9999H14.8312L11.5712 23.9111C6.97 22.6411 5.85625 29.7799 10.625 29.9999C11.1483 29.9964 11.6624 29.8619 12.1203 29.6086C12.5782 29.3553 12.9654 28.9913 13.2465 28.5499C13.5275 28.1085 13.6935 27.6037 13.7293 27.0816C13.7651 26.5595 13.6695 26.0368 13.4513 25.5611L17.5 20.7024L21.5487 25.5611C21.3305 26.0368 21.2349 26.5595 21.2707 27.0816C21.3065 27.6037 21.4725 28.1085 21.7535 28.5499C22.0346 28.9913 22.4218 29.3553 22.8797 29.6086C23.3376 29.8619 23.8517 29.9964 24.375 29.9999C29.145 29.7786 28.0287 22.6411 23.4287 23.9111L20.1688 19.9999H23.75C25.407 19.9979 26.9956 19.3388 28.1672 18.1671C29.3389 16.9954 29.998 15.4069 30 13.7499V12.4999H8.13125Z" fill="url(#paint0_linear_162_4120)"/>
</g>
<defs>
<linearGradient id="paint0_linear_162_4120" x1="-5.5" y1="-5.2507" x2="26.0403" y2="26.8502" gradientUnits="userSpaceOnUse">
<stop stop-color="#D57EEB"/>
<stop offset="1" stop-color="#FC9090"/>
</linearGradient>
<clipPath id="clip0_162_4120">
<rect width="30" height="30" fill="white"/>
</clipPath>
</defs>
</svg>
