<svg width="30" height="30" viewBox="0 0 30 30" fill="none" xmlns="http://www.w3.org/2000/svg">
<g filter="url(#filter0_d_7_531)">
<path d="M19.5815 6C18.6435 6.01494 17.726 6.28315 16.9215 6.77753C16.1171 7.27192 15.4543 7.97497 15 8.8157C14.5457 7.97497 13.8829 7.27192 13.0785 6.77753C12.2741 6.28315 11.3565 6.01494 10.4185 6C8.92324 6.06654 7.51444 6.73656 6.49991 7.86368C5.48539 8.99079 4.9476 10.4834 5.00403 12.0154C5.00403 15.895 8.99076 20.1322 12.3344 23.0051C13.081 23.6477 14.0249 24 15 24C15.9751 24 16.919 23.6477 17.6656 23.0051C21.0092 20.1322 24.996 15.895 24.996 12.0154C25.0524 10.4834 24.5146 8.99079 23.5001 7.86368C22.4856 6.73656 21.0768 6.06654 19.5815 6ZM16.5952 21.6996C16.1487 22.0848 15.5837 22.296 15 22.296C14.4163 22.296 13.8513 22.0848 13.4048 21.6996C9.12487 18.0213 6.67003 14.4923 6.67003 12.0154C6.61308 10.9358 6.97521 9.8769 7.67742 9.06971C8.37964 8.26251 9.36497 7.77248 10.4185 7.70648C11.4721 7.77248 12.4574 8.26251 13.1596 9.06971C13.8618 9.8769 14.2239 10.9358 14.167 12.0154C14.167 12.2416 14.2548 12.4587 14.411 12.6187C14.5672 12.7787 14.7791 12.8686 15 12.8686C15.2209 12.8686 15.4328 12.7787 15.589 12.6187C15.7452 12.4587 15.833 12.2416 15.833 12.0154C15.7761 10.9358 16.1382 9.8769 16.8404 9.06971C17.5426 8.26251 18.5279 7.77248 19.5815 7.70648C20.635 7.77248 21.6204 8.26251 22.3226 9.06971C23.0248 9.8769 23.3869 10.9358 23.33 12.0154C23.33 14.4923 20.8751 18.0213 16.5952 21.6962V21.6996Z" fill="white"/>
</g>
<defs>
<filter id="filter0_d_7_531" x="0" y="1" width="30" height="28" filterUnits="userSpaceOnUse" color-interpolation-filters="sRGB">
<feFlood flood-opacity="0" result="BackgroundImageFix"/>
<feColorMatrix in="SourceAlpha" type="matrix" values="0 0 0 0 0 0 0 0 0 0 0 0 0 0 0 0 0 0 127 0" result="hardAlpha"/>
<feOffset/>
<feGaussianBlur stdDeviation="2.5"/>
<feComposite in2="hardAlpha" operator="out"/>
<feColorMatrix type="matrix" values="0 0 0 0 0 0 0 0 0 0 0 0 0 0 0 0 0 0 0.65 0"/>
<feBlend mode="normal" in2="BackgroundImageFix" result="effect1_dropShadow_7_531"/>
<feBlend mode="normal" in="SourceGraphic" in2="effect1_dropShadow_7_531" result="shape"/>
</filter>
</defs>
</svg>
