<svg width="30" height="30" viewBox="0 0 30 30" fill="none" xmlns="http://www.w3.org/2000/svg">
<g filter="url(#filter0_d_7_533)">
<path d="M19.5815 6C18.6435 6.01494 17.726 6.28315 16.9215 6.77753C16.1171 7.27192 15.4543 7.97497 15 8.8157C14.5457 7.97497 13.8829 7.27192 13.0785 6.77753C12.2741 6.28315 11.3565 6.01494 10.4185 6C8.92324 6.06654 7.51444 6.73656 6.49991 7.86368C5.48539 8.99079 4.9476 10.4834 5.00403 12.0154C5.00403 15.895 8.99076 20.1322 12.3344 23.0051C13.081 23.6477 14.0249 24 15 24C15.9751 24 16.919 23.6477 17.6656 23.0051C21.0092 20.1322 24.996 15.895 24.996 12.0154C25.0524 10.4834 24.5146 8.99079 23.5001 7.86368C22.4856 6.73656 21.0768 6.06654 19.5815 6Z" fill="#EE3D48"/>
</g>
<defs>
<filter id="filter0_d_7_533" x="0" y="1" width="30" height="28" filterUnits="userSpaceOnUse" color-interpolation-filters="sRGB">
<feFlood flood-opacity="0" result="BackgroundImageFix"/>
<feColorMatrix in="SourceAlpha" type="matrix" values="0 0 0 0 0 0 0 0 0 0 0 0 0 0 0 0 0 0 127 0" result="hardAlpha"/>
<feOffset/>
<feGaussianBlur stdDeviation="2.5"/>
<feComposite in2="hardAlpha" operator="out"/>
<feColorMatrix type="matrix" values="0 0 0 0 0 0 0 0 0 0 0 0 0 0 0 0 0 0 0.65 0"/>
<feBlend mode="normal" in2="BackgroundImageFix" result="effect1_dropShadow_7_533"/>
<feBlend mode="normal" in="SourceGraphic" in2="effect1_dropShadow_7_533" result="shape"/>
</filter>
</defs>
</svg>
