<svg width="30" height="30" viewBox="0 0 30 30" fill="none" xmlns="http://www.w3.org/2000/svg">
<g clip-path="url(#clip0_1086_8326)">
<path d="M15.0001 0.0527344C11.6925 0.0563732 8.5214 1.37183 6.18247 3.71052C3.84355 6.04921 2.52777 9.22016 2.5238 12.5277C2.5238 15.7402 5.0113 20.7677 9.91755 27.4702C10.5016 28.2704 11.2664 28.9213 12.1496 29.3701C13.0327 29.8189 14.0094 30.0528 15.0001 30.0528C15.9907 30.0528 16.9674 29.8189 17.8506 29.3701C18.7337 28.9213 19.4985 28.2704 20.0826 27.4702C24.9888 20.7677 27.4763 15.7402 27.4763 12.5277C27.4723 9.22016 26.1566 6.04921 23.8176 3.71052C21.4787 1.37183 18.3076 0.0563732 15.0001 0.0527344ZM15.0001 17.5002C14.0111 17.5002 13.0444 17.207 12.2222 16.6576C11.4 16.1082 10.7591 15.3273 10.3807 14.4137C10.0022 13.5 9.9032 12.4947 10.0961 11.5248C10.2891 10.5549 10.7653 9.66396 11.4645 8.9647C12.1638 8.26544 13.0547 7.78924 14.0246 7.59631C14.9945 7.40338 15.9998 7.5024 16.9135 7.88084C17.8271 8.25928 18.608 8.90014 19.1574 9.72238C19.7068 10.5446 20.0001 11.5113 20.0001 12.5002C20.0001 13.8263 19.4733 15.0981 18.5356 16.0358C17.5979 16.9735 16.3261 17.5002 15.0001 17.5002Z" fill="#414042"/>
</g>
<defs>
<clipPath id="clip0_1086_8326">
<rect width="30" height="30" fill="white"/>
</clipPath>
</defs>
</svg>
