<svg width="20" height="20" viewBox="0 0 20 20" fill="none" xmlns="http://www.w3.org/2000/svg">
<g clip-path="url(#clip0_162_4550)">
<g clip-path="url(#clip1_162_4550)">
<path d="M10 0.0349998C7.79495 0.0374258 5.68089 0.914396 4.12161 2.47352C2.56232 4.03265 1.68514 6.14662 1.6825 8.35167C1.6825 10.4933 3.34083 13.845 6.61166 18.3133C7.00105 18.8468 7.51088 19.2807 8.09966 19.5799C8.68845 19.8791 9.33956 20.035 10 20.035C10.6604 20.035 11.3115 19.8791 11.9003 19.5799C12.4891 19.2807 12.9989 18.8468 13.3883 18.3133C16.6592 13.845 18.3175 10.4933 18.3175 8.35167C18.3148 6.14662 17.4377 4.03265 15.8784 2.47352C14.3191 0.914396 12.205 0.0374258 10 0.0349998ZM10 11.6667C9.34072 11.6667 8.69626 11.4712 8.1481 11.1049C7.59993 10.7386 7.17269 10.218 6.9204 9.60895C6.6681 8.99986 6.60209 8.32964 6.73071 7.68303C6.85933 7.03643 7.1768 6.44249 7.64297 5.97631C8.10915 5.51014 8.70309 5.19267 9.34969 5.06405C9.9963 4.93543 10.6665 5.00144 11.2756 5.25374C11.8847 5.50603 12.4053 5.93327 12.7716 6.48143C13.1378 7.0296 13.3333 7.67406 13.3333 8.33333C13.3333 9.21739 12.9821 10.0652 12.357 10.6904C11.7319 11.3155 10.8841 11.6667 10 11.6667Z" fill="#414042" fill-opacity="0.4"/>
</g>
</g>
<defs>
<clipPath id="clip0_162_4550">
<rect width="20" height="20" fill="white"/>
</clipPath>
<clipPath id="clip1_162_4550">
<rect width="20" height="20" fill="white"/>
</clipPath>
</defs>
</svg>
