<svg width="20" height="20" viewBox="0 0 20 20" fill="none" xmlns="http://www.w3.org/2000/svg">
<g clip-path="url(#clip0_1243_8146)">
<g clip-path="url(#clip1_1243_8146)">
<path d="M10 0.0349731C7.79495 0.0373991 5.68089 0.914369 4.12161 2.4735C2.56232 4.03263 1.68514 6.14659 1.6825 8.35164C1.6825 10.4933 3.34083 13.845 6.61166 18.3133C7.00105 18.8467 7.51088 19.2807 8.09966 19.5799C8.68845 19.8791 9.33956 20.035 10 20.035C10.6604 20.035 11.3115 19.8791 11.9003 19.5799C12.4891 19.2807 12.9989 18.8467 13.3883 18.3133C16.6592 13.845 18.3175 10.4933 18.3175 8.35164C18.3149 6.14659 17.4377 4.03263 15.8784 2.4735C14.3191 0.914369 12.205 0.0373991 10 0.0349731V0.0349731ZM10 11.6666C9.34072 11.6666 8.69626 11.4711 8.14809 11.1049C7.59993 10.7386 7.17269 10.218 6.9204 9.60892C6.6681 8.99983 6.60209 8.32961 6.73071 7.68301C6.85933 7.0364 7.1768 6.44246 7.64297 5.97628C8.10915 5.51011 8.70309 5.19264 9.34969 5.06402C9.9963 4.93541 10.6665 5.00142 11.2756 5.25371C11.8847 5.506 12.4053 5.93324 12.7716 6.48141C13.1378 7.02957 13.3333 7.67404 13.3333 8.33331C13.3333 9.21736 12.9821 10.0652 12.357 10.6903C11.7319 11.3155 10.8841 11.6666 10 11.6666Z" fill="#414042" fill-opacity="0.4"/>
</g>
</g>
<defs>
<clipPath id="clip0_1243_8146">
<rect width="20" height="20" fill="white"/>
</clipPath>
<clipPath id="clip1_1243_8146">
<rect width="20" height="20" fill="white"/>
</clipPath>
</defs>
</svg>
