<svg width="30" height="30" viewBox="0 0 30 30" fill="none" xmlns="http://www.w3.org/2000/svg">
<g clip-path="url(#clip0_1086_7977)">
<path d="M15 0.0527344C11.6924 0.0563732 8.52134 1.37183 6.18241 3.71052C3.84349 6.04921 2.52771 9.22016 2.52374 12.5277C2.52374 15.7402 5.01124 20.7677 9.91749 27.4702C10.5016 28.2704 11.2663 28.9213 12.1495 29.3701C13.0327 29.8189 14.0093 30.0528 15 30.0528C15.9906 30.0528 16.9673 29.8189 17.8505 29.3701C18.7337 28.9213 19.4984 28.2704 20.0825 27.4702C24.9887 20.7677 27.4762 15.7402 27.4762 12.5277C27.4723 9.22016 26.1565 6.04921 23.8176 3.71052C21.4786 1.37183 18.3076 0.0563732 15 0.0527344ZM15 17.5002C14.0111 17.5002 13.0444 17.207 12.2221 16.6576C11.3999 16.1082 10.759 15.3273 10.3806 14.4137C10.0022 13.5 9.90314 12.4947 10.0961 11.5248C10.289 10.5549 10.7652 9.66396 11.4645 8.9647C12.1637 8.26544 13.0546 7.78924 14.0245 7.59631C14.9944 7.40338 15.9998 7.5024 16.9134 7.88084C17.827 8.25928 18.6079 8.90014 19.1573 9.72238C19.7067 10.5446 20 11.5113 20 12.5002C20 13.8263 19.4732 15.0981 18.5355 16.0358C17.5978 16.9735 16.3261 17.5002 15 17.5002Z" fill="#7AB1FF"/>
</g>
<defs>
<clipPath id="clip0_1086_7977">
<rect width="30" height="30" fill="white"/>
</clipPath>
</defs>
</svg>
