<svg width="20" height="20" viewBox="0 0 20 20" fill="none" xmlns="http://www.w3.org/2000/svg">
<g clip-path="url(#clip0_1110_7404)">
<path d="M19.1664 9.16667C18.9454 9.16667 18.7334 9.07887 18.5772 8.92259C18.4209 8.76631 18.3331 8.55435 18.3331 8.33334C18.3313 6.56577 17.6284 4.8711 16.3785 3.62124C15.1287 2.37138 13.434 1.66843 11.6664 1.66667C11.4454 1.66667 11.2334 1.57887 11.0772 1.42259C10.9209 1.26631 10.8331 1.05435 10.8331 0.833335C10.8331 0.612321 10.9209 0.40036 11.0772 0.244079C11.2334 0.0877989 11.4454 1.54418e-06 11.6664 1.54418e-06C13.8758 0.00242787 15.994 0.881181 17.5563 2.44346C19.1186 4.00574 19.9973 6.12394 19.9998 8.33334C19.9998 8.55435 19.912 8.76631 19.7557 8.92259C19.5994 9.07887 19.3874 9.16667 19.1664 9.16667ZM16.6664 8.33334C16.6664 7.00725 16.1396 5.73548 15.202 4.7978C14.2643 3.86012 12.9925 3.33333 11.6664 3.33333C11.4454 3.33333 11.2334 3.42113 11.0772 3.57741C10.9209 3.73369 10.8331 3.94565 10.8331 4.16667C10.8331 4.38768 10.9209 4.59964 11.0772 4.75592C11.2334 4.9122 11.4454 5 11.6664 5C12.5505 5 13.3983 5.35119 14.0234 5.97631C14.6486 6.60143 14.9998 7.44928 14.9998 8.33334C14.9998 8.55435 15.0876 8.76631 15.2438 8.92259C15.4001 9.07887 15.6121 9.16667 15.8331 9.16667C16.0541 9.16667 16.2661 9.07887 16.4223 8.92259C16.5786 8.76631 16.6664 8.55435 16.6664 8.33334ZM18.4856 18.47L19.2439 17.5958C19.7266 17.1116 19.9976 16.4558 19.9976 15.7721C19.9976 15.0884 19.7266 14.4326 19.2439 13.9483C19.2181 13.9225 17.2131 12.38 17.2131 12.38C16.7319 11.9219 16.0927 11.6669 15.4283 11.6678C14.764 11.6687 14.1255 11.9256 13.6456 12.385L12.0573 13.7233C10.7607 13.1867 9.58299 12.3993 8.59166 11.4063C7.60033 10.4132 6.81494 9.23411 6.28059 7.93667L7.61392 6.35334C8.07369 5.87348 8.33084 5.2349 8.33193 4.57034C8.33301 3.90578 8.07795 3.26636 7.61976 2.785C7.61976 2.785 6.07559 0.782502 6.04976 0.756668C5.5743 0.278125 4.92966 0.00585322 4.25511 -0.00131947C3.58057 -0.00849216 2.93028 0.25001 2.44476 0.718335L1.48642 1.55167C-4.17524 8.12 8.01642 20.2175 14.8014 20C15.4866 20.004 16.1656 19.8706 16.7983 19.6078C17.4311 19.3451 18.0048 18.9582 18.4856 18.47V18.47Z" fill="#BDBDBD"/>
</g>
<defs>
<clipPath id="clip0_1110_7404">
<rect width="20" height="20" fill="white"/>
</clipPath>
</defs>
</svg>
