<svg width="31" height="30" viewBox="0 0 31 30" fill="none" xmlns="http://www.w3.org/2000/svg">
<g clip-path="url(#clip0_29_329)">
<path d="M14.25 0H4.25C3.25544 0 2.30161 0.395088 1.59835 1.09835C0.895088 1.80161 0.5 2.75544 0.5 3.75L0.5 30H18V3.75C18 2.75544 17.6049 1.80161 16.9017 1.09835C16.1984 0.395088 15.2446 0 14.25 0V0ZM8 23.75H4.25V21.25H8V23.75ZM8 18.75H4.25V16.25H8V18.75ZM8 13.75H4.25V11.25H8V13.75ZM8 8.75H4.25V6.25H8V8.75ZM14.25 23.75H10.5V21.25H14.25V23.75ZM14.25 18.75H10.5V16.25H14.25V18.75ZM14.25 13.75H10.5V11.25H14.25V13.75ZM14.25 8.75H10.5V6.25H14.25V8.75ZM26.75 6.25H20.5V30H30.5V10C30.5 9.00544 30.1049 8.05161 29.4017 7.34835C28.6984 6.64509 27.7446 6.25 26.75 6.25ZM26.75 23.75H24.25V21.25H26.75V23.75ZM26.75 18.75H24.25V16.25H26.75V18.75ZM26.75 13.75H24.25V11.25H26.75V13.75Z" fill="url(#paint0_linear_29_329)"/>
</g>
<defs>
<linearGradient id="paint0_linear_29_329" x1="-3.5" y1="1.5" x2="35" y2="31.5" gradientUnits="userSpaceOnUse">
<stop stop-color="#2DBDE8"/>
<stop offset="1" stop-color="#0070A5"/>
</linearGradient>
<clipPath id="clip0_29_329">
<rect width="30" height="30" fill="white" transform="translate(0.5)"/>
</clipPath>
</defs>
</svg>
