<svg width="30" height="30" viewBox="0 0 30 30" fill="none" xmlns="http://www.w3.org/2000/svg">
<path d="M23.3875 10.2625C23.2713 10.1453 23.1331 10.0524 22.9807 9.98889C22.8284 9.92543 22.665 9.89276 22.5 9.89276C22.335 9.89276 22.1716 9.92543 22.0193 9.98889C21.867 10.0524 21.7287 10.1453 21.6125 10.2625L15.8875 15.9875C15.7713 16.1047 15.6331 16.1977 15.4807 16.2611C15.3284 16.3246 15.165 16.3573 15 16.3573C14.835 16.3573 14.6716 16.3246 14.5193 16.2611C14.367 16.1977 14.2287 16.1047 14.1125 15.9875L8.38751 10.2625C8.27131 10.1453 8.13306 10.0524 7.98074 9.98889C7.82841 9.92543 7.66503 9.89276 7.50001 9.89276C7.335 9.89276 7.17162 9.92543 7.01929 9.98889C6.86697 10.0524 6.72872 10.1453 6.61251 10.2625C6.3797 10.4967 6.24902 10.8135 6.24902 11.1438C6.24902 11.474 6.3797 11.7908 6.61251 12.025L12.35 17.7625C13.0531 18.4648 14.0063 18.8592 15 18.8592C15.9938 18.8592 16.9469 18.4648 17.65 17.7625L23.3875 12.025C23.6203 11.7908 23.751 11.474 23.751 11.1438C23.751 10.8135 23.6203 10.4967 23.3875 10.2625Z" fill="#414042"/>
</svg>
