<svg width="30" height="30" viewBox="0 0 30 30" fill="none" xmlns="http://www.w3.org/2000/svg">
<g clip-path="url(#clip0_29_347)">
<path d="M7.26379 9.48412L4.61278 10.2613C2.87082 10.7726 1.42575 11.9958 0.633655 13.6294C-0.14532 15.2408 -0.208892 17.1059 0.458519 18.7666C0.467447 18.7896 0.478951 18.8113 0.487938 18.8343L2.68646 18.4751C4.75867 17.9354 6.65354 16.8629 8.18279 15.364C8.68752 14.8698 9.4973 14.8784 9.99149 15.3832C10.4856 15.8879 10.4771 16.6977 9.97232 17.1919C8.09016 19.0291 5.75491 20.335 3.20414 20.9767L1.70604 21.2247C2.56806 22.6256 3.6368 23.8883 4.87605 24.9699L7.50022 23.9959L9.28975 23.1011C11.1345 22.174 12.7139 20.794 13.8798 19.0901L14.5432 18.1173C14.9247 17.5233 15.7154 17.3509 16.3095 17.7323C16.9035 18.1137 17.0758 18.9044 16.6945 19.4985C16.6818 19.5182 16.6686 19.5376 16.6549 19.5566L15.9927 20.5293C14.5823 22.5933 12.6702 24.2647 10.4363 25.3866L8.45505 26.3747L7.37751 26.7735C9.97435 28.2874 12.9279 29.0817 15.9339 29.0743H17.115C17.3793 29.0741 17.6371 28.9929 17.8538 28.8416C20.5609 27.0018 22.8027 24.5572 24.4022 21.7015L10.4797 8.03204C9.46392 8.63187 8.38549 9.11875 7.26379 9.48412Z" fill="url(#paint0_linear_29_347)"/>
<path d="M29.6211 1.30351C29.1159 0.800034 28.2985 0.800034 27.7933 1.30351L21.7038 7.39296L21.2948 6.99289C19.0685 4.81846 15.601 4.5601 13.0771 6.3806C12.9595 6.46497 12.8432 6.53525 12.7243 6.6171L25.541 19.1999C25.9489 18.0956 26.2485 16.9543 26.4357 15.7921C26.7574 13.7378 26.0654 11.6548 24.5785 10.2012L23.5559 9.19908L29.6237 3.13133C30.1265 2.62539 30.1253 1.80807 29.6211 1.30351Z" fill="url(#paint1_linear_29_347)"/>
</g>
<defs>
<linearGradient id="paint0_linear_29_347" x1="10.1676" y1="14.0678" x2="18.4118" y2="28.8886" gradientUnits="userSpaceOnUse">
<stop stop-color="#9D50BB"/>
<stop offset="1" stop-color="#6E48AA"/>
</linearGradient>
<linearGradient id="paint1_linear_29_347" x1="19.9225" y1="6.16762" x2="27.7692" y2="17.667" gradientUnits="userSpaceOnUse">
<stop stop-color="#9D50BB"/>
<stop offset="1" stop-color="#6E48AA"/>
</linearGradient>
<clipPath id="clip0_29_347">
<rect width="30" height="30" fill="white"/>
</clipPath>
</defs>
</svg>
