<svg width="30" height="30" viewBox="0 0 30 30" fill="none" xmlns="http://www.w3.org/2000/svg">
<path d="M2.00877 22.5C3.04272 24.2945 5.33566 24.911 7.13016 23.8771C7.13139 23.8764 7.13256 23.8757 7.13379 23.875L7.69002 23.5537C8.74002 24.4521 9.94693 25.1487 11.25 25.6087V26.25C11.25 28.3211 12.9289 30 15 30C17.0711 30 18.75 28.3211 18.75 26.25V25.6087C20.0532 25.148 21.2602 24.4505 22.31 23.5512L22.8687 23.8737C24.6636 24.9093 26.9582 24.2937 27.9938 22.4987C29.0293 20.7038 28.4137 18.4092 26.6187 17.3737L26.0637 17.0537C26.3136 15.6943 26.3136 14.3007 26.0637 12.9412L26.6187 12.6212C28.4136 11.5857 29.0293 9.29115 27.9938 7.49619C26.9582 5.70129 24.6637 5.08564 22.8687 6.12117L22.3125 6.44244C21.2614 5.5452 20.0537 4.8498 18.75 4.39125V3.75C18.75 1.67895 17.0711 0 15 0C12.9289 0 11.25 1.67895 11.25 3.75V4.39125C9.94676 4.85197 8.73979 5.54947 7.69002 6.44877L7.13127 6.12504C5.33631 5.08945 3.04178 5.7051 2.00625 7.5C0.970723 9.2949 1.58631 11.5895 3.38127 12.625L3.93627 12.945C3.68643 14.3044 3.68643 15.698 3.93627 17.0575L3.38127 17.3775C1.59129 18.4158 0.977696 20.7059 2.00877 22.5ZM15 10C17.7614 10 20 12.2386 20 15C20 17.7614 17.7614 20 15 20C12.2386 20 10 17.7614 10 15C10 12.2386 12.2386 10 15 10Z" fill="#414042"/>
</svg>
