<svg width="42" height="42" viewBox="0 0 42 42" fill="none" xmlns="http://www.w3.org/2000/svg">
<g clip-path="url(#clip0_7_513)">
<path d="M42 28.0001V36.7501C42 38.1425 41.4469 39.4779 40.4623 40.4625C39.4777 41.447 38.1424 42.0001 36.75 42.0001H28C25.5449 41.9976 23.1337 41.3495 21.0081 40.1209C18.8826 38.8923 17.1175 37.1263 15.89 35.0001C17.2093 34.9907 18.5241 34.8453 19.8135 34.5661C20.7955 35.794 22.0412 36.7852 23.4584 37.4662C24.8755 38.1472 26.4277 38.5006 28 38.5001H36.75C37.2141 38.5001 37.6592 38.3158 37.9874 37.9876C38.3156 37.6594 38.5 37.2143 38.5 36.7501V28.0001C38.4996 26.4273 38.1451 24.8747 37.4629 23.4576C36.7807 22.0404 35.7882 20.795 34.559 19.8136C34.8405 18.5244 34.9883 17.2097 35 15.8901C37.1262 17.1177 38.8921 18.8828 40.1208 21.0083C41.3494 23.1338 41.9975 25.5451 42 28.0001ZM31.4597 16.8894C31.6234 14.6348 31.2998 12.3713 30.511 10.2529C29.7221 8.13441 28.4865 6.21058 26.888 4.61212C25.2896 3.01366 23.3657 1.77802 21.2473 0.989166C19.1288 0.200309 16.8654 -0.123279 14.6108 0.0403913C10.6154 0.496673 6.92462 2.39795 4.23356 5.38619C1.5425 8.37443 0.0367975 12.2434 0 16.2646L0 25.0846C0 29.5156 2.63725 31.5001 5.25 31.5001H15.225C19.2479 31.4655 23.1193 29.9608 26.1096 27.2696C29.1 24.5784 31.0029 20.8864 31.4597 16.8894ZM24.4125 7.08939C25.6549 8.33452 26.6153 9.83199 27.2288 11.4805C27.8423 13.129 28.0946 14.89 27.9685 16.6444C27.595 19.7658 26.0934 22.6431 23.7463 24.7345C21.3993 26.826 18.3687 27.9874 15.225 28.0001H5.25C3.626 28.0001 3.5 25.7689 3.5 25.0846V16.2646C3.51459 13.1223 4.67713 10.0936 6.76885 7.74858C8.86057 5.40353 11.7372 3.90381 14.8575 3.53164C15.148 3.51064 15.4385 3.50014 15.729 3.50014C17.3412 3.49864 18.9379 3.81486 20.4279 4.43072C21.9179 5.04658 23.2719 5.95001 24.4125 7.08939Z" fill="#414042"/>
</g>
<defs>
<clipPath id="clip0_7_513">
<rect width="42" height="42" fill="white"/>
</clipPath>
</defs>
</svg>
