<svg width="42" height="42" viewBox="0 0 42 42" fill="none" xmlns="http://www.w3.org/2000/svg">
<g clip-path="url(#clip0_7_511)">
<path d="M30.625 3.35474C28.6544 3.38539 26.7268 3.93548 25.0368 4.94946C23.3469 5.96344 21.9544 7.40541 21 9.12974C20.0456 7.40541 18.6531 5.96344 16.9632 4.94946C15.2732 3.93548 13.3456 3.38539 11.375 3.35474C8.23363 3.49122 5.27397 4.86543 3.14261 7.17714C1.01124 9.48886 -0.118575 12.5502 -1.19554e-05 15.6922C-1.19554e-05 23.6495 8.37549 32.34 15.4 38.2322C16.9684 39.5502 18.9514 40.2728 21 40.2728C23.0486 40.2728 25.0316 39.5502 26.6 38.2322C33.6245 32.34 42 23.6495 42 15.6922C42.1186 12.5502 40.9887 9.48886 38.8574 7.17714C36.726 4.86543 33.7663 3.49122 30.625 3.35474Z" fill="#414042"/>
</g>
<defs>
<clipPath id="clip0_7_511">
<rect width="42" height="42" fill="white"/>
</clipPath>
</defs>
</svg>
