<svg width="42" height="42" viewBox="0 0 42 42" fill="none" xmlns="http://www.w3.org/2000/svg">
<g clip-path="url(#clip0_7_515)">
<path d="M15.225 31.4999H5.25C2.63725 31.4999 0 29.5154 0 25.0844V16.2644C0.0367975 12.2432 1.5425 8.37422 4.23356 5.38598C6.92462 2.39774 10.6154 0.496459 14.6108 0.0401777C16.8654 -0.123492 19.1288 0.200095 21.2473 0.988953C23.3657 1.77781 25.2896 3.01345 26.888 4.61191C28.4865 6.21037 29.7221 8.13419 30.511 10.2526C31.2998 12.3711 31.6234 14.6345 31.4597 16.8892C31.0029 20.8862 29.1 24.5782 26.1096 27.2694C23.1193 29.9606 19.2479 31.4653 15.225 31.4999ZM35 15.8899H34.979C34.979 16.3047 34.979 16.7194 34.958 17.1359C34.2825 26.5999 25.6322 34.6114 15.897 34.9667V34.9929C17.1231 37.1194 18.8866 38.8861 21.0109 40.1159C23.1352 41.3458 25.5454 41.9955 28 41.9999H36.75C38.1424 41.9999 39.4777 41.4468 40.4623 40.4622C41.4469 39.4777 42 38.1423 42 36.7499V27.9999C41.9975 25.5449 41.3494 23.1336 40.1208 21.0081C38.8921 18.8825 37.1262 17.1175 35 15.8899Z" fill="#414042"/>
</g>
<defs>
<clipPath id="clip0_7_515">
<rect width="42" height="42" fill="white"/>
</clipPath>
</defs>
</svg>
