<svg width="88" height="85" viewBox="0 0 88 85" fill="none" xmlns="http://www.w3.org/2000/svg">
<path fill-rule="evenodd" clip-rule="evenodd" d="M43.5 43C61.4493 43 76 28.4493 76 10.5C76 8.77229 75.8652 7.07606 75.6055 5.42127C75.1804 2.71231 77.1155 0 79.8576 0H84C86.2091 0 88 1.79086 88 4V81C88 83.2091 86.2091 85 84 85H4C1.79086 85 0 83.2091 0 81V4C0 1.79086 1.79086 0 4 0H7.14239C9.88449 0 11.8196 2.71231 11.3945 5.42126C11.1348 7.07606 11 8.77228 11 10.5C11 28.4493 25.5507 43 43.5 43Z" fill="white"/>
</svg>
