<svg width="42" height="42" viewBox="0 0 42 42" fill="none" xmlns="http://www.w3.org/2000/svg">
<g clip-path="url(#clip0_7_507)">
<path d="M40.4618 15.8708L27.188 2.59526C25.5452 0.957241 23.3199 0.0374146 21 0.0374146C18.6801 0.0374146 16.4548 0.957241 14.812 2.59526L1.53827 15.8708C1.04902 16.3569 0.661118 16.9353 0.397065 17.5724C0.133013 18.2096 -0.0019432 18.8928 2.11391e-05 19.5825V36.7623C2.11391e-05 38.1546 0.553145 39.49 1.53771 40.4746C2.52228 41.4591 3.85764 42.0123 5.25002 42.0123H36.75C38.1424 42.0123 39.4778 41.4591 40.4623 40.4746C41.4469 39.49 42 38.1546 42 36.7623V19.5825C42.002 18.8928 41.867 18.2096 41.603 17.5724C41.3389 16.9353 40.951 16.3569 40.4618 15.8708ZM26.25 38.5123H15.75V31.6278C15.75 30.2354 16.3031 28.9 17.2877 27.9154C18.2723 26.9309 19.6076 26.3778 21 26.3778C22.3924 26.3778 23.7278 26.9309 24.7123 27.9154C25.6969 28.9 26.25 30.2354 26.25 31.6278V38.5123ZM38.5 36.7623C38.5 37.2264 38.3157 37.6715 37.9875 37.9997C37.6593 38.3279 37.2142 38.5123 36.75 38.5123H29.75V31.6278C29.75 29.3071 28.8282 27.0815 27.1872 25.4406C25.5463 23.7996 23.3207 22.8778 21 22.8778C18.6794 22.8778 16.4538 23.7996 14.8128 25.4406C13.1719 27.0815 12.25 29.3071 12.25 31.6278V38.5123H5.25002C4.78589 38.5123 4.34077 38.3279 4.01258 37.9997C3.6844 37.6715 3.50002 37.2264 3.50002 36.7623V19.5825C3.50164 19.1187 3.68585 18.6742 4.01277 18.3453L17.2865 5.07501C18.273 4.09314 19.6082 3.54191 21 3.54191C22.3919 3.54191 23.727 4.09314 24.7135 5.07501L37.9873 18.3505C38.3129 18.6782 38.497 19.1205 38.5 19.5825V36.7623Z" fill="#414042"/>
</g>
<defs>
<clipPath id="clip0_7_507">
<rect width="42" height="42" fill="white"/>
</clipPath>
</defs>
</svg>
