<svg width="93" height="93" viewBox="0 0 93 93" fill="none" xmlns="http://www.w3.org/2000/svg">
<g filter="url(#filter0_d_29_104)">
<g filter="url(#filter1_d_29_104)">
<circle cx="46.5" cy="46.5" r="27.5" fill="#7AB1FF"/>
</g>
<g clip-path="url(#clip0_29_104)">
<path d="M59.125 44.125H47.875V32.875C47.875 31.8395 47.0355 31 46 31C44.9645 31 44.125 31.8395 44.125 32.875V44.125H32.875C31.8395 44.125 31 44.9645 31 46C31 47.0355 31.8395 47.875 32.875 47.875H44.125V59.125C44.125 60.1605 44.9645 61 46 61C47.0355 61 47.875 60.1605 47.875 59.125V47.875H59.125C60.1605 47.875 61 47.0355 61 46C61 44.9645 60.1605 44.125 59.125 44.125Z" fill="white"/>
</g>
</g>
<defs>
<filter id="filter0_d_29_104" x="11" y="12" width="71" height="71" filterUnits="userSpaceOnUse" color-interpolation-filters="sRGB">
<feFlood flood-opacity="0" result="BackgroundImageFix"/>
<feColorMatrix in="SourceAlpha" type="matrix" values="0 0 0 0 0 0 0 0 0 0 0 0 0 0 0 0 0 0 127 0" result="hardAlpha"/>
<feOffset dy="1"/>
<feGaussianBlur stdDeviation="4"/>
<feComposite in2="hardAlpha" operator="out"/>
<feColorMatrix type="matrix" values="0 0 0 0 0.254902 0 0 0 0 0.25098 0 0 0 0 0.258824 0 0 0 0.5 0"/>
<feBlend mode="normal" in2="BackgroundImageFix" result="effect1_dropShadow_29_104"/>
<feBlend mode="normal" in="SourceGraphic" in2="effect1_dropShadow_29_104" result="shape"/>
</filter>
<filter id="filter1_d_29_104" x="0" y="0" width="93" height="93" filterUnits="userSpaceOnUse" color-interpolation-filters="sRGB">
<feFlood flood-opacity="0" result="BackgroundImageFix"/>
<feColorMatrix in="SourceAlpha" type="matrix" values="0 0 0 0 0 0 0 0 0 0 0 0 0 0 0 0 0 0 127 0" result="hardAlpha"/>
<feMorphology radius="13" operator="dilate" in="SourceAlpha" result="effect1_dropShadow_29_104"/>
<feOffset/>
<feGaussianBlur stdDeviation="3"/>
<feComposite in2="hardAlpha" operator="out"/>
<feColorMatrix type="matrix" values="0 0 0 0 0.254902 0 0 0 0 0.25098 0 0 0 0 0.258824 0 0 0 0.05 0"/>
<feBlend mode="normal" in2="BackgroundImageFix" result="effect1_dropShadow_29_104"/>
<feBlend mode="normal" in="SourceGraphic" in2="effect1_dropShadow_29_104" result="shape"/>
</filter>
<clipPath id="clip0_29_104">
<rect width="30" height="30" fill="white" transform="translate(31 31)"/>
</clipPath>
</defs>
</svg>
