<svg width="42" height="42" viewBox="0 0 42 42" fill="none" xmlns="http://www.w3.org/2000/svg">
<g clip-path="url(#clip0_112_1631)">
<path d="M21 26.237C18.1005 26.237 15.75 28.5875 15.75 31.487V41.987H26.25V31.487C26.25 28.5875 23.8995 26.237 21 26.237Z" fill="#414042"/>
<path d="M29.75 31.487V41.987H36.75C39.6495 41.987 42 39.6364 42 36.737V20.7752C42.0004 19.8661 41.6471 18.9925 41.0147 18.3392L26.1433 2.26194C23.5193 -0.577158 19.0906 -0.751474 16.2515 1.87254C16.1166 1.99723 15.9867 2.12708 15.8621 2.26194L1.01678 18.334C0.365285 18.9899 -0.00024597 19.877 1.24181e-07 20.8015V36.737C1.24181e-07 39.6364 2.35052 41.987 5.25 41.987H12.25V31.487C12.2827 26.715 16.1355 22.8182 20.7872 22.706C25.5946 22.59 29.7134 26.5532 29.75 31.487Z" fill="#414042"/>
<path d="M21 26.237C18.1005 26.237 15.75 28.5875 15.75 31.487V41.987H26.25V31.487C26.25 28.5875 23.8995 26.237 21 26.237Z" fill="#414042"/>
</g>
<defs>
<clipPath id="clip0_112_1631">
<rect width="42" height="42" fill="white"/>
</clipPath>
</defs>
</svg>
