<svg width="42" height="42" viewBox="0 0 42 42" fill="none" xmlns="http://www.w3.org/2000/svg">
<g clip-path="url(#clip0_7_509)">
<path d="M30.625 3.35474C28.6544 3.38539 26.7268 3.93548 25.0368 4.94946C23.3469 5.96344 21.9544 7.40541 21 9.12974C20.0456 7.40541 18.6531 5.96344 16.9632 4.94946C15.2732 3.93548 13.3456 3.38539 11.375 3.35474C8.23363 3.49122 5.27397 4.86543 3.14261 7.17714C1.01124 9.48886 -0.118575 12.5502 -1.19563e-05 15.6922C-1.19563e-05 23.6495 8.37549 32.34 15.4 38.2322C16.9684 39.5502 18.9514 40.2728 21 40.2728C23.0486 40.2728 25.0316 39.5502 26.6 38.2322C33.6245 32.34 42 23.6495 42 15.6922C42.1185 12.5502 40.9887 9.48886 38.8574 7.17714C36.726 4.86543 33.7663 3.49122 30.625 3.35474ZM24.3512 35.5547C23.4132 36.3447 22.2263 36.7778 21 36.7778C19.7737 36.7778 18.5868 36.3447 17.6487 35.5547C8.65724 28.0105 3.49999 20.7725 3.49999 15.6922C3.38036 13.478 4.14113 11.3063 5.61637 9.65071C7.09162 7.99516 9.16165 6.9901 11.375 6.85474C13.5883 6.9901 15.6584 7.99516 17.1336 9.65071C18.6088 11.3063 19.3696 13.478 19.25 15.6922C19.25 16.1564 19.4344 16.6015 19.7626 16.9297C20.0907 17.2579 20.5359 17.4422 21 17.4422C21.4641 17.4422 21.9092 17.2579 22.2374 16.9297C22.5656 16.6015 22.75 16.1564 22.75 15.6922C22.6304 13.478 23.3911 11.3063 24.8664 9.65071C26.3416 7.99516 28.4116 6.9901 30.625 6.85474C32.8383 6.9901 34.9084 7.99516 36.3836 9.65071C37.8588 11.3063 38.6196 13.478 38.5 15.6922C38.5 20.7725 33.3427 28.0105 24.3512 35.5477V35.5547Z" fill="#414042"/>
</g>
<defs>
<clipPath id="clip0_7_509">
<rect width="42" height="42" fill="white"/>
</clipPath>
</defs>
</svg>
