<svg width="42" height="42" viewBox="0 0 42 42" fill="none" xmlns="http://www.w3.org/2000/svg">
<g clip-path="url(#clip0_7_517)">
<path d="M21 21C23.0767 21 25.1068 20.3842 26.8335 19.2304C28.5602 18.0767 29.906 16.4368 30.7007 14.5182C31.4955 12.5996 31.7034 10.4884 31.2982 8.45156C30.8931 6.41476 29.8931 4.54383 28.4246 3.07538C26.9562 1.60693 25.0852 0.606904 23.0484 0.201759C21.0116 -0.203386 18.9004 0.0045495 16.9818 0.79927C15.0632 1.59399 13.4233 2.9398 12.2696 4.66652C11.1158 6.39323 10.5 8.4233 10.5 10.5C10.5028 13.2839 11.6099 15.953 13.5784 17.9216C15.547 19.8901 18.2161 20.9972 21 21ZM21 3.5C22.3845 3.5 23.7378 3.91055 24.889 4.67972C26.0401 5.44889 26.9373 6.54214 27.4672 7.82122C27.997 9.1003 28.1356 10.5078 27.8655 11.8656C27.5954 13.2235 26.9287 14.4708 25.9497 15.4498C24.9708 16.4287 23.7235 17.0954 22.3656 17.3655C21.0078 17.6356 19.6003 17.497 18.3212 16.9672C17.0421 16.4373 15.9489 15.5401 15.1797 14.389C14.4105 13.2379 14 11.8845 14 10.5C14 8.64349 14.7375 6.86301 16.0503 5.55026C17.363 4.2375 19.1435 3.5 21 3.5Z" fill="#414042"/>
<path d="M21 24.5C16.8243 24.5046 12.8209 26.1655 9.86818 29.1182C6.91549 32.0709 5.25463 36.0743 5.25 40.25C5.25 40.7141 5.43437 41.1593 5.76256 41.4874C6.09075 41.8156 6.53587 42 7 42C7.46413 42 7.90925 41.8156 8.23744 41.4874C8.56563 41.1593 8.75 40.7141 8.75 40.25C8.75 37.0011 10.0406 33.8853 12.3379 31.5879C14.6353 29.2906 17.7511 28 21 28C24.2489 28 27.3647 29.2906 29.6621 31.5879C31.9594 33.8853 33.25 37.0011 33.25 40.25C33.25 40.7141 33.4344 41.1593 33.7626 41.4874C34.0907 41.8156 34.5359 42 35 42C35.4641 42 35.9093 41.8156 36.2374 41.4874C36.5656 41.1593 36.75 40.7141 36.75 40.25C36.7454 36.0743 35.0845 32.0709 32.1318 29.1182C29.1791 26.1655 25.1757 24.5046 21 24.5Z" fill="#414042"/>
</g>
<defs>
<clipPath id="clip0_7_517">
<rect width="42" height="42" fill="white"/>
</clipPath>
</defs>
</svg>
