<svg width="21" height="20" viewBox="0 0 21 20" fill="none" xmlns="http://www.w3.org/2000/svg">
<path d="M7.31197 14.9995H2.54874C1.30111 14.9995 0.0417786 14.0545 0.0417786 11.9445V7.74454C0.05935 5.82969 0.778347 3.9873 2.06337 2.56433C3.3484 1.14135 5.11079 0.235985 7.01866 0.0187079C8.09528 -0.0592302 9.17612 0.0948592 10.1877 0.470506C11.1993 0.846152 12.118 1.43455 12.8813 2.19572C13.6446 2.9569 14.2346 3.873 14.6113 4.88179C14.988 5.89058 15.1425 6.96841 15.0643 8.04204C14.8462 9.94539 13.9375 11.7035 12.5096 12.985C11.0816 14.2665 9.23298 14.9831 7.31197 14.9995ZM16.7549 7.56621H16.7448C16.7448 7.76371 16.7448 7.96121 16.7348 8.15954C16.4123 12.6662 12.2816 16.4812 7.63286 16.6504V16.6629C8.21833 17.6755 9.06047 18.5168 10.0748 19.1024C11.0892 19.688 12.2401 19.9974 13.4123 19.9995H17.5905C18.2554 19.9995 18.8931 19.7362 19.3632 19.2673C19.8334 18.7985 20.0975 18.1626 20.0975 17.4995V13.3329C20.0963 12.1638 19.7868 11.0156 19.2001 10.0034C18.6134 8.99126 17.7701 8.15075 16.7549 7.56621Z" fill="#BDBDBD"/>
</svg>
