<svg width="285" height="81" viewBox="0 0 285 81" fill="none" xmlns="http://www.w3.org/2000/svg">
<path d="M8.34961 27H12.6211L17.7539 8.8418H18.0176L23.1855 27H27.4395L34.2422 1.63477H29.5488L25.207 20.6719H24.9609L19.8984 1.63477H15.873L10.8809 20.6719H10.6172L6.27539 1.63477H1.54688L8.34961 27ZM44.2756 27.3867C49.4963 27.3867 52.0627 24.3809 52.6779 21.9023L52.7307 21.7441H48.5647L48.5119 21.8672C48.09 22.7461 46.7365 23.9414 44.3635 23.9414C41.3928 23.9414 39.5295 21.9375 39.4768 18.4922H52.9065V17.0508C52.9065 11.25 49.5315 7.41797 44.0647 7.41797C38.5979 7.41797 35.0998 11.373 35.0998 17.4199V17.4375C35.0998 23.5547 38.5627 27.3867 44.2756 27.3867ZM44.1174 10.8457C46.5607 10.8457 48.3361 12.4102 48.635 15.5566H39.5119C39.8459 12.498 41.674 10.8457 44.1174 10.8457ZM57.0512 27H61.4281V0.351562H57.0512V27ZM74.8014 27.3867C79.6705 27.3867 82.5006 24.7676 83.1334 20.8301L83.1686 20.6895L79.0377 20.707L79.0026 20.7773C78.4576 22.7988 77.069 23.8359 74.8014 23.8359C71.8307 23.8359 70.0553 21.4453 70.0553 17.3672V17.332C70.0553 13.3066 71.8131 10.9512 74.8014 10.9512C77.192 10.9512 78.6158 12.2871 79.0201 14.1504L79.0377 14.2031H83.1686V14.1328C82.6764 10.1602 79.7233 7.41797 74.7838 7.41797C69.0006 7.41797 65.608 11.127 65.608 17.332V17.3672C65.608 23.6426 69.0182 27.3867 74.8014 27.3867ZM95.2235 27.3867C100.972 27.3867 104.47 23.625 104.47 17.4023V17.3672C104.47 11.1797 100.954 7.41797 95.2235 7.41797C89.5106 7.41797 85.9774 11.1973 85.9774 17.3672V17.4023C85.9774 23.625 89.4578 27.3867 95.2235 27.3867ZM95.2235 23.8359C92.1824 23.8359 90.4422 21.4629 90.4422 17.4199V17.3848C90.4422 13.3418 92.1824 10.9512 95.2235 10.9512C98.2469 10.9512 99.9871 13.3418 99.9871 17.3848V17.4199C99.9871 21.4629 98.2645 23.8359 95.2235 23.8359ZM108.456 27H112.833V15.3105C112.833 12.9199 114.415 11.0918 116.577 11.0918C118.722 11.0918 120.04 12.4102 120.04 14.5371V27H124.417V14.9941C124.417 12.7969 125.894 11.0918 128.179 11.0918C130.517 11.0918 131.659 12.3574 131.659 14.8535V27H136.036V13.7812C136.036 9.79102 133.716 7.41797 129.849 7.41797C127.177 7.41797 124.962 8.78906 124.03 10.8809H123.731C122.905 8.75391 121.007 7.41797 118.405 7.41797C115.892 7.41797 113.958 8.63086 113.132 10.7754H112.833V7.78711H108.456V27ZM149.04 27.3867C154.261 27.3867 156.827 24.3809 157.443 21.9023L157.495 21.7441H153.329L153.277 21.8672C152.855 22.7461 151.501 23.9414 149.128 23.9414C146.157 23.9414 144.294 21.9375 144.241 18.4922H157.671V17.0508C157.671 11.25 154.296 7.41797 148.829 7.41797C143.363 7.41797 139.865 11.373 139.865 17.4199V17.4375C139.865 23.5547 143.327 27.3867 149.04 27.3867ZM148.882 10.8457C151.325 10.8457 153.101 12.4102 153.4 15.5566H144.277C144.611 12.498 146.439 10.8457 148.882 10.8457ZM181.517 27.3164C186.334 27.3164 189.41 23.502 189.41 17.4199V17.3848C189.41 11.2676 186.386 7.4707 181.517 7.4707C178.881 7.4707 176.683 8.77148 175.681 10.8457H175.382V0.351562H171.006V27H175.382V23.9941H175.681C176.736 26.0859 178.828 27.3164 181.517 27.3164ZM180.146 23.625C177.175 23.625 175.33 21.2695 175.33 17.4199V17.3848C175.33 13.5352 177.175 11.1621 180.146 11.1621C183.134 11.1621 184.945 13.5176 184.945 17.3848V17.4199C184.945 21.2871 183.134 23.625 180.146 23.625ZM198.617 27.3164C201.148 27.3164 203.187 26.2266 204.242 24.3633H204.541V27H208.865V13.8691C208.865 9.80859 206.088 7.41797 201.148 7.41797C196.578 7.41797 193.484 9.5625 193.062 12.7969L193.045 12.9551H197.176L197.193 12.8848C197.633 11.6191 198.933 10.8984 200.937 10.8984C203.293 10.8984 204.541 11.9531 204.541 13.8691V15.5215L199.601 15.8203C194.926 16.1016 192.307 18.1055 192.307 21.5332V21.5684C192.307 25.0664 194.961 27.3164 198.617 27.3164ZM196.631 21.3574V21.3223C196.631 19.7402 197.773 18.8438 200.217 18.6855L204.541 18.4043V19.9512C204.541 22.2363 202.59 23.959 199.953 23.959C198.019 23.959 196.631 22.9922 196.631 21.3574ZM221.957 27.3867C226.826 27.3867 229.656 24.7676 230.289 20.8301L230.324 20.6895L226.193 20.707L226.158 20.7773C225.613 22.7988 224.225 23.8359 221.957 23.8359C218.986 23.8359 217.211 21.4453 217.211 17.3672V17.332C217.211 13.3066 218.969 10.9512 221.957 10.9512C224.348 10.9512 225.772 12.2871 226.176 14.1504L226.193 14.2031H230.324V14.1328C229.832 10.1602 226.879 7.41797 221.94 7.41797C216.156 7.41797 212.764 11.127 212.764 17.332V17.3672C212.764 23.6426 216.174 27.3867 221.957 27.3867ZM234.258 27H238.635V20.25L240.164 18.6855L246.334 27H251.608L243.346 15.9082L251.08 7.78711H246.018L238.934 15.6621H238.635V0.351562H234.258V27Z" fill="#414042"/>
<path d="M10.2305 70.0879C11.0742 70.0879 11.8828 70.0176 12.5156 69.8945V66.5195C11.9883 66.5723 11.6543 66.5898 11.0391 66.5898C9.21094 66.5898 8.45508 65.7812 8.45508 63.8652V54.1797H12.5156V50.7871H8.45508V46.0762H4.00781V50.7871H1.01953V54.1797H4.00781V64.9023C4.00781 68.6113 5.81836 70.0879 10.2305 70.0879ZM24.5881 70.3867C30.3361 70.3867 33.8342 66.625 33.8342 60.4023V60.3672C33.8342 54.1797 30.3186 50.418 24.5881 50.418C18.8752 50.418 15.342 54.1973 15.342 60.3672V60.4023C15.342 66.625 18.8225 70.3867 24.5881 70.3867ZM24.5881 66.8359C21.5471 66.8359 19.8068 64.4629 19.8068 60.4199V60.3848C19.8068 56.3418 21.5471 53.9512 24.5881 53.9512C27.6115 53.9512 29.3518 56.3418 29.3518 60.3848V60.4199C29.3518 64.4629 27.6291 66.8359 24.5881 66.8359Z" fill="#414042"/>
<path d="M55.8711 40.6094V55.2969C55.8711 55.9609 55.8451 56.6901 55.793 57.4844C55.7409 58.2656 55.6888 59.0013 55.6367 59.6914H55.7344C56.0729 59.2357 56.4766 58.7018 56.9453 58.0898C57.4271 57.4779 57.8828 56.944 58.3125 56.4883L64.9141 49.3789H70.1875L61.5352 58.6758L70.7539 71H65.3633L58.4492 61.5078L55.8711 63.7148V71H51.2812V40.6094H55.8711ZM74.8008 49.3789V71H70.2109V49.3789H74.8008ZM72.5352 41.0977C73.2383 41.0977 73.8438 41.2865 74.3516 41.6641C74.8724 42.0417 75.1328 42.6927 75.1328 43.6172C75.1328 44.5286 74.8724 45.1797 74.3516 45.5703C73.8438 45.9479 73.2383 46.1367 72.5352 46.1367C71.806 46.1367 71.1875 45.9479 70.6797 45.5703C70.1849 45.1797 69.9375 44.5286 69.9375 43.6172C69.9375 42.6927 70.1849 42.0417 70.6797 41.6641C71.1875 41.2865 71.806 41.0977 72.5352 41.0977ZM81.9727 40.6094V47.9336C81.9727 48.7799 81.9466 49.6133 81.8945 50.4336C81.8555 51.2409 81.8164 51.8724 81.7773 52.3281H81.9727C82.5586 51.3906 83.3724 50.6029 84.4141 49.9648C85.4688 49.3138 86.8164 48.9883 88.457 48.9883C91.0221 48.9883 93.0859 49.9323 94.6484 51.8203C96.2109 53.6953 96.9922 56.4753 96.9922 60.1602C96.9922 62.6081 96.6341 64.6654 95.918 66.332C95.2018 67.9987 94.1927 69.2617 92.8906 70.1211C91.6016 70.9674 90.0846 71.3906 88.3398 71.3906C86.6992 71.3906 85.3711 71.0911 84.3555 70.4922C83.3529 69.8802 82.5651 69.1706 81.9922 68.3633H81.6602L80.8203 71H77.3828V40.6094H81.9727ZM87.2461 52.7188C85.944 52.7188 84.9089 52.9792 84.1406 53.5C83.3854 54.0208 82.8385 54.8021 82.5 55.8438C82.1615 56.8724 81.9857 58.181 81.9727 59.7695V60.1797C81.9727 62.5885 82.3503 64.431 83.1055 65.707C83.8737 66.9831 85.2669 67.6211 87.2852 67.6211C88.8867 67.6211 90.1172 66.9766 90.9766 65.6875C91.8359 64.3854 92.2656 62.5234 92.2656 60.1016C92.2656 57.6536 91.8359 55.8112 90.9766 54.5742C90.1302 53.3372 88.8867 52.7188 87.2461 52.7188Z" fill="#414042"/>
<path d="M106.352 67.6797C106.951 67.6797 107.543 67.6276 108.129 67.5234C108.715 67.4062 109.249 67.2695 109.73 67.1133V70.5898C109.223 70.8112 108.565 71 107.758 71.1562C106.951 71.3125 106.111 71.3906 105.238 71.3906C104.014 71.3906 102.914 71.1888 101.938 70.7852C100.961 70.3685 100.186 69.6589 99.6133 68.6562C99.0404 67.6536 98.7539 66.2669 98.7539 64.4961V52.875H95.8047V50.8242L98.9688 49.2031L100.473 44.5742H103.363V49.3789H109.555V52.875H103.363V64.4375C103.363 65.5312 103.637 66.3451 104.184 66.8789C104.73 67.4128 105.453 67.6797 106.352 67.6797Z" fill="#35D073"/>
<path d="M129.266 60.1406C129.266 61.9375 129.031 63.5326 128.562 64.9258C128.094 66.319 127.41 67.4974 126.512 68.4609C125.613 69.4115 124.533 70.1406 123.27 70.6484C122.007 71.1432 120.581 71.3906 118.992 71.3906C117.508 71.3906 116.147 71.1432 114.91 70.6484C113.673 70.1406 112.599 69.4115 111.688 68.4609C110.789 67.4974 110.092 66.319 109.598 64.9258C109.103 63.5326 108.855 61.9375 108.855 60.1406C108.855 57.7578 109.266 55.7396 110.086 54.0859C110.919 52.4193 112.104 51.1497 113.641 50.2773C115.177 49.4049 117.007 48.9688 119.129 48.9688C121.121 48.9688 122.879 49.4049 124.402 50.2773C125.926 51.1497 127.117 52.4193 127.977 54.0859C128.836 55.7526 129.266 57.7708 129.266 60.1406ZM113.582 60.1406C113.582 61.7161 113.771 63.0638 114.148 64.1836C114.539 65.3034 115.138 66.1628 115.945 66.7617C116.753 67.3477 117.794 67.6406 119.07 67.6406C120.346 67.6406 121.388 67.3477 122.195 66.7617C123.003 66.1628 123.595 65.3034 123.973 64.1836C124.35 63.0638 124.539 61.7161 124.539 60.1406C124.539 58.5651 124.35 57.2305 123.973 56.1367C123.595 55.0299 123.003 54.1901 122.195 53.6172C121.388 53.0312 120.34 52.7383 119.051 52.7383C117.15 52.7383 115.763 53.3763 114.891 54.6523C114.018 55.9284 113.582 57.7578 113.582 60.1406Z" fill="#FFC11E"/>
<path d="M141.633 48.9688C144.198 48.9688 146.255 49.9062 147.805 51.7812C149.367 53.6562 150.148 56.4427 150.148 60.1406C150.148 62.5885 149.784 64.6523 149.055 66.332C148.339 67.9987 147.329 69.2617 146.027 70.1211C144.738 70.9674 143.234 71.3906 141.516 71.3906C140.422 71.3906 139.471 71.2474 138.664 70.9609C137.857 70.6745 137.167 70.3034 136.594 69.8477C136.021 69.3789 135.539 68.8711 135.148 68.3242H134.875C134.94 68.8451 134.999 69.4245 135.051 70.0625C135.116 70.6875 135.148 71.2604 135.148 71.7812V80.5898H130.539V49.3789H134.289L134.934 52.3672H135.148C135.552 51.7552 136.04 51.1888 136.613 50.668C137.199 50.1471 137.902 49.737 138.723 49.4375C139.556 49.125 140.526 48.9688 141.633 48.9688ZM140.402 52.7188C139.139 52.7188 138.124 52.9727 137.355 53.4805C136.6 53.9753 136.047 54.724 135.695 55.7266C135.357 56.7292 135.174 57.9857 135.148 59.4961V60.1406C135.148 61.7422 135.311 63.1029 135.637 64.2227C135.975 65.3294 136.529 66.1758 137.297 66.7617C138.078 67.3346 139.133 67.6211 140.461 67.6211C141.581 67.6211 142.505 67.3151 143.234 66.7031C143.977 66.0911 144.53 65.2188 144.895 64.0859C145.259 62.9531 145.441 61.6185 145.441 60.082C145.441 57.7513 145.025 55.9414 144.191 54.6523C143.371 53.3633 142.108 52.7188 140.402 52.7188Z" fill="#7AB1FF"/>
</svg>
